<svg id="Capa_1" data-name="Capa 1" xmlns="http://www.w3.org/2000/svg" viewBox="0 0 76 76"><defs><style>.cls-1{fill:#075fe4;}.cls-2{fill:#fff;}</style></defs><circle class="cls-1" cx="38" cy="38" r="38"/><path class="cls-2" d="M47.62,53.144a1.988,1.988,0,0,1-.594-.559,2.02,2.02,0,0,1-.188-.332H20.543V26.335H56.235V43.259A1.987,1.987,0,0,1,57.9,44.513a1.983,1.983,0,0,1,.781-.235,1.954,1.954,0,0,1,.557.031V19.879a2.509,2.509,0,0,0-2.506-2.507H20.042a2.509,2.509,0,0,0-2.506,2.507V52.754a2.509,2.509,0,0,0,2.506,2.507H47.391a1.984,1.984,0,0,1,.229-2.117Zm5.862-31.563a.927.927,0,0,1,.926-.926h.925a.927.927,0,0,1,.926.926V22.63a.926.926,0,0,1-.926.925h-.925a.926.926,0,0,1-.926-.925Zm-4.3,0a.927.927,0,0,1,.926-.926h.925a.927.927,0,0,1,.926.926V22.63a.926.926,0,0,1-.926.925h-.925a.926.926,0,0,1-.926-.925Zm-4.3,0a.926.926,0,0,1,.925-.926h.926a.926.926,0,0,1,.925.926V22.63a.925.925,0,0,1-.925.925H45.8a.925.925,0,0,1-.925-.925Z"/><path class="cls-2" d="M62.187,51.379,61.909,49.8a.39.39,0,0,0-.453-.316l-1.4.247a5.311,5.311,0,0,0-.639-1.1l.916-1.092a.389.389,0,0,0,.09-.285.393.393,0,0,0-.138-.265l-1.227-1.03a.392.392,0,0,0-.285-.089.387.387,0,0,0-.265.138L57.591,47.1a5.253,5.253,0,0,0-1.2-.437V45.235A.391.391,0,0,0,56,44.844H54.4a.391.391,0,0,0-.391.391v1.424a5.245,5.245,0,0,0-1.2.437L51.9,46.005a.389.389,0,0,0-.55-.048l-1.227,1.029a.39.39,0,0,0-.048.55l.916,1.092a5.308,5.308,0,0,0-.638,1.1l-1.4-.247a.389.389,0,0,0-.452.316l-.278,1.578a.39.39,0,0,0,.316.452l1.4.247a5.27,5.27,0,0,0,.22,1.257l-1.233.712a.39.39,0,0,0-.143.533l.8,1.387a.391.391,0,0,0,.237.182.4.4,0,0,0,.3-.039l1.234-.713a5.261,5.261,0,0,0,.977.82l-.488,1.339a.389.389,0,0,0,.234.5l1.5.548a.387.387,0,0,0,.134.024.382.382,0,0,0,.165-.037.393.393,0,0,0,.2-.22l.487-1.34a5.23,5.23,0,0,0,1.275,0l.487,1.34a.392.392,0,0,0,.367.257.383.383,0,0,0,.134-.024l1.5-.548a.389.389,0,0,0,.233-.5l-.488-1.339a5.294,5.294,0,0,0,.977-.82l1.234.713a.4.4,0,0,0,.2.052.388.388,0,0,0,.338-.2l.8-1.387a.39.39,0,0,0-.143-.533l-1.233-.712a5.27,5.27,0,0,0,.22-1.256l1.4-.248a.392.392,0,0,0,.252-.161A.383.383,0,0,0,62.187,51.379ZM55.2,53.885a2.149,2.149,0,1,1,2.148-2.149A2.149,2.149,0,0,1,55.2,53.885Z"/><path class="cls-2" d="M35.05,40.7A1.306,1.306,0,0,0,34.3,39.52l-4.2-1.95,4.2-1.95a1.307,1.307,0,0,0,.755-1.182V34.4a1.3,1.3,0,0,0-1.3-1.3,1.312,1.312,0,0,0-.549.121l-6.708,3.119a1.308,1.308,0,0,0-.754,1.182v.094a1.31,1.31,0,0,0,.754,1.182l6.709,3.12a1.3,1.3,0,0,0,1.853-1.183V40.7Z"/><path class="cls-2" d="M41.668,29.923a1.307,1.307,0,0,0-1.053-.535h-.033a1.3,1.3,0,0,0-1.242.906L34.92,43.988a1.3,1.3,0,0,0,1.243,1.7H36.2a1.3,1.3,0,0,0,1.241-.905l4.42-13.693A1.307,1.307,0,0,0,41.668,29.923Z"/><path class="cls-2" d="M50.29,36.341l-6.708-3.119A1.3,1.3,0,0,0,41.728,34.4v.034a1.31,1.31,0,0,0,.755,1.183l4.2,1.949-4.2,1.95a1.306,1.306,0,0,0-.755,1.182v.034a1.3,1.3,0,0,0,1.854,1.182L50.29,38.8a1.31,1.31,0,0,0,.754-1.182v-.093A1.308,1.308,0,0,0,50.29,36.341Z"/></svg>