<svg id="Capa_1" data-name="Capa 1" xmlns="http://www.w3.org/2000/svg" viewBox="0 0 76 76"><defs><style>.cls-1{fill:#075fe4;}.cls-2,.cls-3{fill:#fff;stroke:#fff;stroke-miterlimit:10;}.cls-2{stroke-width:2px;}.cls-3{stroke-width:1.8px;}</style></defs><circle class="cls-1" cx="38" cy="38" r="38"/><path class="cls-2" d="M25.919,65.614c-.074-.178-.247-.16-.378-.2a5.123,5.123,0,0,1-3.519-5.2q-.009-7.361,0-14.721,0-14.8,0-29.6a5.226,5.226,0,0,1,2.742-4.974,4.368,4.368,0,0,1,2.12-.517c5.881-.008,9.76,0,15.641,0,.591,0,.932.3.939.8.007.515-.343.82-.967.82-5.814,0-9.627,0-15.441,0a3.3,3.3,0,0,0-3.226,2.083,7.421,7.421,0,0,0-.308,3.024c0,.138.056.191.179.187s.233,0,.35,0q13.944,0,27.887.01c.411,0,.608-.061.55-.569s0-1-.051-1.506a3.373,3.373,0,0,0-3.242-3.221c-.5-.018-1,.012-1.5-.014a.753.753,0,0,1-.736-.789c.018-.447.244-.784.665-.8a6.443,6.443,0,0,1,3.841.629,5.344,5.344,0,0,1,2.514,4.914q0,17.66,0,35.319,0,4.313,0,8.627a5.946,5.946,0,0,1-1.147,3.851A4.779,4.779,0,0,1,50.1,65.5c-.076.018-.171-.015-.193.11ZM52.478,37.84q0-9.138.011-18.277c0-.5-.083-.656-.584-.655q-13.916.028-27.832,0c-.456,0-.564.122-.563.609q.022,13.18.011,26.363,0,7.2,0,14.394a3.409,3.409,0,0,0,3.317,3.709c7.445.02,14.891.008,22.336.007.066,0,.133-.005.2-.011a3.321,3.321,0,0,0,2.961-2.614,11.581,11.581,0,0,0,.151-2.354c.027-.476-.085-.627-.56-.626q-12.842.026-25.684.012a4.565,4.565,0,0,1-.549-.015.716.716,0,0,1-.643-.707.757.757,0,0,1,.5-.83,1.771,1.771,0,0,1,.693-.065q12.842,0,25.683.011c.475,0,.56-.152.559-.624Q52.466,47.005,52.478,37.84Z"/><path class="cls-3" d="M39.9,31.4c-.2,1.046-.41,2.122-.621,3.2q-.979,4.986-1.959,9.973c-.152.775-.465,1.111-.969,1s-.665-.508-.519-1.254q1.255-6.405,2.515-12.809a2.187,2.187,0,0,1,.117-.432.7.7,0,0,1,.835-.465A.745.745,0,0,1,39.9,31.4Z"/><path class="cls-3" d="M48.118,38.1a.853.853,0,0,1-.3.627c-1.187,1.189-2.37,2.381-3.564,3.562a.753.753,0,0,1-1.144.076.762.762,0,0,1,.1-1.143c.947-.958,1.9-1.912,2.863-2.852.219-.213.22-.328,0-.542-.907-.88-1.795-1.78-2.688-2.674a3.505,3.505,0,0,1-.306-.328.7.7,0,0,1,.034-.99.676.676,0,0,1,.987-.057,8.408,8.408,0,0,1,.65.617q1.5,1.5,3,3A.923.923,0,0,1,48.118,38.1Z"/><path class="cls-3" d="M32.309,33.6a.749.749,0,0,1,.739,1,1.381,1.381,0,0,1-.358.474c-.919.919-1.83,1.845-2.762,2.75-.224.217-.221.328,0,.544.909.881,1.8,1.783,2.691,2.679a3.153,3.153,0,0,1,.3.329.736.736,0,0,1-1.043,1.031,2.863,2.863,0,0,1-.258-.235q-1.678-1.677-3.356-3.357c-.533-.535-.533-.9,0-1.439q1.692-1.7,3.391-3.394A1.1,1.1,0,0,1,32.309,33.6Z"/></svg>