<svg id="Capa_1" data-name="Capa 1" xmlns="http://www.w3.org/2000/svg" viewBox="0 0 76 76"><defs><style>.cls-1{fill:#075fe4;}.cls-2{fill:#fff;stroke:#fff;stroke-miterlimit:10;}</style></defs><circle class="cls-1" cx="38" cy="38" r="38"/><path class="cls-2" d="M16.435,53.717V20.128a1.639,1.639,0,0,1,1.489-.9q20.739.02,41.477.011a1.312,1.312,0,0,1,1.474,1.465q0,16.225,0,32.451a1.95,1.95,0,0,1-.043.471,1.318,1.318,0,0,1-1.478.994q-7.593,0-15.186-.007c-.353,0-.468.079-.459.449.026,1.084.016,2.169.005,3.253,0,.261.036.372.346.381a1.3,1.3,0,1,1-.045,2.59q-5.358.008-10.717,0a1.3,1.3,0,1,1-.045-2.59c.31-.009.349-.12.346-.381-.011-1.07-.026-2.14.006-3.21.012-.409-.116-.493-.5-.492-4.946.013-9.892,0-14.838.021A1.784,1.784,0,0,1,16.435,53.717Zm22.212-8.478q9.57,0,19.139.009c.379,0,.5-.074.5-.481q-.022-11.219,0-22.436c0-.372-.063-.5-.477-.5q-19.138.019-38.277,0c-.379,0-.5.072-.5.48q.021,11.2,0,22.392c0,.412.065.546.522.545Q29.1,45.223,38.647,45.239Zm.009,6.78q9.611,0,19.222.008c.324,0,.409-.074.4-.4-.022-1.113-.024-2.228,0-3.341.008-.358-.079-.454-.446-.452-3.067.017-6.133.01-9.2.01q-14.559,0-29.117-.007c-.34,0-.508.022-.493.45.04,1.1.031,2.2,0,3.3-.009.364.087.444.447.444Q29.066,52.009,38.656,52.019Zm.011,6.666c.708,0,1.416-.007,2.124,0,.224,0,.333-.029.329-.3q-.023-1.734,0-3.468c0-.261-.1-.309-.329-.307q-2.124.014-4.248,0c-.254,0-.355.051-.351.331.015,1.141.017,2.283,0,3.424-.005.3.114.322.354.318C37.25,58.677,37.959,58.685,38.667,58.685Z"/><path class="cls-2" d="M40.335,32.237c0,.968,0,1.937,0,2.905a4.355,4.355,0,0,1-3.272,4.411A4.789,4.789,0,0,1,31.9,38.127a3.777,3.777,0,0,1-1.037-2.64c-.014-2.269-.01-4.539,0-6.809a1.3,1.3,0,1,1,2.6,0c.005,2.125.086,4.255-.027,6.374a2.142,2.142,0,0,0,2.843,2.023A1.847,1.847,0,0,0,37.73,35.1q0-3.166,0-6.332A1.347,1.347,0,0,1,38.7,27.34a1.292,1.292,0,0,1,1.635,1.3C40.347,29.837,40.334,31.037,40.335,32.237Z"/><path class="cls-2" d="M43.852,33.534q0-2.383,0-4.768a1.31,1.31,0,1,1,2.6-.009q0,4.789,0,9.579a1.309,1.309,0,1,1-2.6.009Q43.849,35.939,43.852,33.534Z"/></svg>